<svg width="139" height="27" viewBox="0 0 139 27" fill="none" xmlns="http://www.w3.org/2000/svg">
<path d="M44.5833 23.5304C42.5786 23.5304 40.8064 23.1367 39.2667 22.3492C37.7269 21.5435 36.5366 20.4067 35.6953 18.9388C34.8539 17.4708 34.4332 15.7433 34.4332 13.7562C34.4332 11.7691 34.8539 10.0416 35.6953 8.57364C36.5366 7.08777 37.7269 5.95103 39.2667 5.16335C40.8064 4.35777 42.5786 3.95496 44.5833 3.95496C45.944 3.95496 47.1434 4.09819 48.1817 4.38463C49.2381 4.65315 50.2046 5.08278 51.0816 5.67355V9.56719C50.2942 8.9227 49.3902 8.45727 48.3698 8.17083C47.3673 7.8665 46.2217 7.71435 44.9327 7.71435C43.7333 7.71435 42.6499 7.96497 41.6834 8.46622C40.7347 8.94956 39.9828 9.64772 39.4279 10.5607C38.8729 11.4737 38.5952 12.5389 38.5952 13.7562C38.5952 14.9914 38.846 16.0745 39.3471 17.0054C39.8664 17.9184 40.5913 18.6255 41.5221 19.1267C42.453 19.628 43.5273 19.8786 44.7446 19.8786C45.8545 19.8786 46.821 19.6817 47.6445 19.2878V15.6627H44.6103V12.6552H51.5918V21.7047C49.8196 22.922 47.4837 23.5304 44.5833 23.5304Z" fill="#2D2D2D" fill-opacity="0.8"/>
<path d="M52.5349 10.2385H56.4552V12.0913C56.9745 11.4648 57.6994 10.9904 58.6303 10.6682C59.5612 10.328 60.6176 10.158 61.7988 10.158V13.246C60.5638 13.246 59.4717 13.434 58.523 13.8099C57.5921 14.1858 56.9476 14.7587 56.5895 15.5285V23.1279H52.5349V10.2385Z" fill="#2D2D2D" fill-opacity="0.8"/>
<path d="M69.5919 23.5306C67.1213 23.5306 65.1787 22.94 63.7646 21.7584C62.3504 20.5591 61.6434 18.8853 61.6434 16.7371C61.6434 14.6067 62.27 12.924 63.5229 11.6888C64.7941 10.4535 66.602 9.83594 68.9474 9.83594C70.4867 9.83594 71.7935 10.1224 72.8678 10.6952C73.9416 11.2681 74.7564 12.0647 75.3114 13.0851C75.8664 14.0876 76.1436 15.2244 76.1436 16.4954V18.1334H65.5103C65.7967 19.7804 67.336 20.6038 70.1286 20.6038C70.9521 20.6038 71.8026 20.5323 72.6796 20.389C73.557 20.2458 74.3179 20.0489 74.9624 19.7982V22.6445C74.3358 22.9131 73.5301 23.1282 72.5453 23.289C71.561 23.4502 70.5762 23.5306 69.5919 23.5306ZM72.3037 15.5018C72.2502 14.6425 71.9278 13.9802 71.3372 13.5148C70.7465 13.0314 69.9317 12.7897 68.8935 12.7897C67.8731 12.7897 67.0674 13.0314 66.4768 13.5148C65.8862 13.9981 65.5637 14.6604 65.5103 15.5018H72.3037Z" fill="#2D2D2D" fill-opacity="0.8"/>
<path d="M84.455 23.5306C81.9848 23.5306 80.0422 22.94 78.6281 21.7584C77.2139 20.5591 76.5065 18.8853 76.5065 16.7371C76.5065 14.6067 77.1331 12.924 78.3864 11.6888C79.6572 10.4535 81.4655 9.83594 83.8105 9.83594C85.3502 9.83594 86.657 10.1224 87.7312 10.6952C88.8051 11.2681 89.6195 12.0647 90.1745 13.0851C90.7295 14.0876 91.0071 15.2244 91.0071 16.4954V18.1334H80.3734C80.6598 19.7804 82.1995 20.6038 84.9921 20.6038C85.8156 20.6038 86.6661 20.5323 87.5431 20.389C88.4201 20.2458 89.181 20.0489 89.8255 19.7982V22.6445C89.1989 22.9131 88.3936 23.1282 87.4088 23.289C86.4241 23.4502 85.4397 23.5306 84.455 23.5306ZM87.1672 15.5018C87.1133 14.6425 86.7913 13.9802 86.2006 13.5148C85.6096 13.0314 84.7952 12.7897 83.757 12.7897C82.7366 12.7897 81.9309 13.0314 81.3403 13.5148C80.7493 13.9981 80.4272 14.6604 80.3734 15.5018H87.1672Z" fill="#2D2D2D" fill-opacity="0.8"/>
<path d="M91.9082 10.2387H95.8286V11.823C96.4196 11.1607 97.1175 10.6684 97.9232 10.3461C98.7468 10.006 99.6059 9.83594 100.501 9.83594C102.256 9.83594 103.562 10.3103 104.422 11.2591C105.299 12.19 105.737 13.4521 105.737 15.0454V23.1282H101.682V15.5018C101.682 13.837 100.913 13.0046 99.373 13.0046C98.6929 13.0046 98.0575 13.1746 97.4665 13.5148C96.8759 13.837 96.3748 14.3203 95.9629 14.9648V23.1282H91.9082V10.2387Z" fill="#2D2D2D" fill-opacity="0.8"/>
<path d="M109.314 8.25137C108.688 8.25137 108.16 8.04551 107.73 7.63374C107.3 7.22202 107.085 6.70286 107.085 6.07629C107.085 5.46765 107.3 4.95745 107.73 4.54569C108.16 4.11606 108.688 3.90125 109.314 3.90125C109.941 3.90125 110.469 4.11606 110.898 4.54569C111.328 4.95745 111.543 5.46765 111.543 6.07629C111.543 6.70286 111.328 7.22202 110.898 7.63374C110.469 8.04551 109.941 8.25137 109.314 8.25137ZM107.273 10.2385H111.355V23.1279H107.273V10.2385Z" fill="#2D2D2D" fill-opacity="0.8"/>
<path d="M118.269 23.5306C117.303 23.5306 116.265 23.4233 115.155 23.2086C114.063 23.0117 113.203 22.7253 112.577 22.3494V19.1807C113.293 19.6103 114.152 19.9594 115.155 20.2279C116.157 20.4964 117.088 20.6307 117.947 20.6307C118.681 20.6307 119.218 20.5681 119.558 20.4427C119.899 20.3174 120.069 20.0847 120.069 19.7446C120.069 19.476 119.97 19.2612 119.773 19.1001C119.577 18.9211 119.272 18.7689 118.86 18.6436C118.467 18.5004 117.804 18.2945 116.873 18.026C115.781 17.7038 114.922 17.3815 114.295 17.0593C113.687 16.7191 113.221 16.2985 112.899 15.7972C112.595 15.296 112.442 14.6515 112.442 13.8638C112.442 12.5212 112.97 11.5187 114.027 10.8563C115.101 10.176 116.551 9.83594 118.377 9.83594C119.272 9.83594 120.194 9.93437 121.143 10.1313C122.109 10.3103 122.852 10.552 123.372 10.8563V13.9444C122.852 13.6042 122.172 13.3268 121.331 13.1119C120.507 12.8971 119.702 12.7897 118.914 12.7897C118.18 12.7897 117.607 12.8613 117.195 13.0046C116.802 13.1478 116.604 13.4163 116.604 13.8101C116.604 14.1502 116.793 14.4098 117.169 14.5889C117.562 14.7679 118.288 14.9916 119.344 15.2602L119.881 15.3944C121.008 15.6987 121.885 16.0389 122.512 16.4149C123.139 16.7729 123.577 17.2114 123.828 17.7306C124.097 18.2318 124.231 18.8674 124.231 19.6371C124.231 20.8188 123.721 21.7675 122.7 22.4837C121.68 23.1816 120.203 23.5306 118.269 23.5306Z" fill="#2D2D2D" fill-opacity="0.8"/>
<path d="M125.17 3.28357H129.225V11.7153C129.834 11.0887 130.523 10.6233 131.292 10.319C132.062 9.99673 132.886 9.83563 133.763 9.83563C135.517 9.83563 136.824 10.31 137.683 11.2588C138.56 12.1897 138.999 13.4518 138.999 15.045V23.1279H134.945V15.5015C134.945 13.8366 134.175 13.0042 132.635 13.0042C131.955 13.0042 131.319 13.1743 130.729 13.5145C130.138 13.8367 129.637 14.32 129.225 14.9645V23.1279H125.17V3.28357Z" fill="#2D2D2D" fill-opacity="0.8"/>
<path fill-rule="evenodd" clip-rule="evenodd" d="M20.5869 7.08308C20.5869 10.4941 17.822 13.2592 14.411 13.2592C11 13.2592 8.23488 10.4941 8.23488 7.08308C8.23488 3.67212 11 0.906982 14.411 0.906982C17.822 0.906982 20.5869 3.67212 20.5869 7.08308ZM0.0448811 12.8103C6.77361 12.3568 12.6379 17.3946 13.1841 24.1377C13.2407 24.8364 13.238 25.5261 13.1802 26.2022C6.45149 26.6558 0.587206 21.618 0.0409599 14.875C-0.0156057 14.1762 -0.0129124 13.4864 0.0448811 12.8103ZM17.5338 25.9662C24.2768 25.4199 29.3146 19.5556 28.861 12.8269C28.1849 12.7691 27.4952 12.7664 26.7965 12.823C20.0534 13.3692 15.0157 19.2335 15.4692 25.9622C16.1452 26.02 16.8351 26.0228 17.5338 25.9662Z" fill="#2D2D2D" fill-opacity="0.8"/>
</svg>
