<svg width="147" height="32" viewBox="0 0 147 32" fill="none" xmlns="http://www.w3.org/2000/svg">
<path d="M0 21.3501L10.4722 16.6892L16.4998 20.1849L17.7175 31.6532L10.2895 31.5917L11.3854 23.6191L10.1069 22.8832L3.83572 27.7897L0 21.3501Z" fill="#2D2D2D" fill-opacity="0.2"/>
<path d="M17.1691 19.6935L26.4237 26.5008L30.0767 19.9388L22.6485 16.9338V15.4619L30.0767 12.3955L26.4237 5.89478L17.1691 12.7022V19.6935Z" fill="#2D2D2D" fill-opacity="0.6"/>
<path d="M16.4998 12.1509L17.7175 0.682617L10.2895 0.805237L11.3854 8.77788L10.1069 9.5138L3.77484 4.60757L0 10.9857L10.4722 15.6466L16.4998 12.1509Z" fill="#2D2D2D" fill-opacity="0.8"/>
<path d="M54.859 14.7931V25.5372H58.8567V11.8448H53.0348V14.7931H54.859Z" fill="#2D2D2D" fill-opacity="0.8"/>
<path d="M54.7331 9.92119C55.0996 10.3042 55.6576 10.4957 56.4071 10.4957C57.157 10.4957 57.7063 10.3042 58.0559 9.92119C58.4228 9.52127 58.6056 9.0215 58.6056 8.42202C58.6056 7.80558 58.4228 7.30585 58.0559 6.92281C57.7063 6.52309 57.157 6.32312 56.4071 6.32312C55.6576 6.32312 55.0996 6.52309 54.7331 6.92281C54.3835 7.30585 54.2085 7.80558 54.2085 8.42202C54.2085 9.0215 54.3835 9.52127 54.7331 9.92119Z" fill="#2D2D2D" fill-opacity="0.8"/>
<path d="M40.9424 25.2375C42.0749 25.7538 43.4658 26.0122 45.1146 26.0122C46.664 26.0122 47.9963 25.7703 49.1127 25.2875C50.2287 24.8046 51.0863 24.1298 51.686 23.2635C52.3026 22.3807 52.6105 21.3563 52.6105 20.1902C52.6105 19.0575 52.3195 18.0997 51.7364 17.3167C51.1697 16.5172 50.3789 15.8926 49.3624 15.443C48.3463 14.9764 47.1721 14.6849 45.8394 14.5684L44.4403 14.4435C43.6074 14.3767 43.0077 14.152 42.6412 13.7687C42.2747 13.3857 42.0915 12.9358 42.0915 12.4196C42.0915 12.0197 42.1917 11.6533 42.3911 11.3202C42.5913 10.9703 42.8909 10.6955 43.2908 10.4955C43.7073 10.2958 44.2153 10.1958 44.815 10.1958C45.4477 10.1958 45.9727 10.3123 46.3891 10.5456C46.4808 10.5949 46.5678 10.6476 46.6496 10.7036L46.6694 10.7175C46.6999 10.7386 46.73 10.7605 46.7593 10.7826C47.0123 10.976 47.2138 11.2051 47.3636 11.4701C47.5798 11.8366 47.6888 12.2446 47.6888 12.6944H51.686C51.686 11.495 51.4111 10.4539 50.8618 9.57112C50.3121 8.67167 49.5209 7.9804 48.4882 7.49719C47.4717 6.99746 46.2476 6.74756 44.815 6.74756C43.4489 6.74756 42.2665 6.98095 41.2668 7.44729C40.2676 7.89711 39.4847 8.54674 38.9184 9.39612C38.3683 10.2457 38.0934 11.2536 38.0934 12.4196C38.0934 14.0353 38.6353 15.3345 39.7179 16.3175C40.8005 17.3002 42.2499 17.8665 44.0655 18.0164L45.4399 18.1413C46.5555 18.2413 47.3636 18.4663 47.8634 18.8159C48.3628 19.1491 48.6129 19.6072 48.6129 20.1902C48.6129 20.4582 48.5691 20.7094 48.4812 20.9442C48.416 21.1184 48.3269 21.2836 48.2134 21.4396C47.9463 21.7892 47.5551 22.0641 47.0388 22.2643C46.5224 22.464 45.8811 22.5639 45.1146 22.5639C44.2653 22.5639 43.574 22.4475 43.0411 22.2139C42.5079 21.9642 42.1084 21.6394 41.8413 21.2397C41.5916 20.8398 41.467 20.4069 41.467 19.9403H37.4941C37.4941 21.123 37.7855 22.1722 38.3683 23.0885C38.9515 23.9882 39.8095 24.7043 40.9424 25.2375Z" fill="#2D2D2D" fill-opacity="0.8"/>
<path d="M67.7754 25.7124C66.3928 25.7124 65.2768 25.5457 64.4274 25.2126C63.5776 24.8626 62.9531 24.2881 62.5532 23.4886C62.1702 22.6723 61.9787 21.5732 61.9787 20.1904V14.7684H59.9048V11.8451H61.9787V8.14722H65.7015V11.8451H69.6995V14.7684H65.7015V20.3405C65.7015 20.9901 65.8682 21.4898 66.2013 21.8394C66.5509 22.1725 67.0424 22.3392 67.6755 22.3392H69.6995V25.7124H67.7754Z" fill="#2D2D2D" fill-opacity="0.8"/>
<path fill-rule="evenodd" clip-rule="evenodd" d="M74.5116 25.4121C75.4109 25.8116 76.4439 26.0117 77.6099 26.0117C78.7589 26.0117 79.7754 25.8116 80.6583 25.4121C81.5411 25.0121 82.2741 24.4541 82.8568 23.7381C83.44 23.0216 83.8317 22.2052 84.031 21.2892H80.3582C80.1919 21.7054 79.8753 22.0554 79.4089 22.3385C78.9426 22.6216 78.3425 22.7632 77.6099 22.7632C77.1559 22.7632 76.7502 22.7095 76.3928 22.6022C76.1208 22.5205 75.8769 22.4078 75.661 22.2638C75.1612 21.9303 74.7947 21.464 74.5615 20.8645C74.4967 20.6936 74.4414 20.515 74.3948 20.3289C74.3473 20.1404 74.3089 19.9443 74.28 19.7401H84.2811V18.3908C84.2811 17.1414 84.0145 15.9921 83.4817 14.9428C82.9484 13.8765 82.1738 13.0187 81.1581 12.3691C80.1584 11.7028 78.9256 11.3696 77.4597 11.3696C76.3437 11.3696 75.344 11.5696 74.4612 11.9693C73.5957 12.3524 72.871 12.8771 72.2878 13.5434C71.7051 14.2097 71.2552 14.9677 70.9382 15.8173C70.6386 16.65 70.4888 17.5245 70.4888 18.4406V18.9404C70.4888 19.8233 70.6386 20.6894 70.9382 21.5391C71.2552 22.3719 71.7051 23.1297 72.2878 23.8128C72.8875 24.4789 73.6284 25.0121 74.5116 25.4121ZM74.349 17.2694C74.3601 17.2165 74.3717 17.1644 74.3845 17.1131C74.4191 16.9718 74.4592 16.8365 74.5046 16.7071C74.5302 16.6335 74.5574 16.5616 74.5867 16.4918C74.8364 15.8754 75.2029 15.4091 75.6858 15.0926C75.8665 14.9743 76.0622 14.8782 76.2722 14.8041C76.6255 14.68 77.0218 14.6178 77.4597 14.6178C78.1431 14.6178 78.709 14.7762 79.1588 15.0926C79.6252 15.3924 79.9752 15.8338 80.2084 16.4168C80.2274 16.4639 80.2451 16.5117 80.2625 16.5602C80.2901 16.6375 80.3157 16.7167 80.3396 16.798C80.3747 16.9189 80.4057 17.0441 80.4329 17.1734C80.4527 17.2688 80.4696 17.3664 80.4849 17.4663H74.3106C74.3221 17.3995 74.3349 17.334 74.349 17.2694Z" fill="#2D2D2D" fill-opacity="0.8"/>
<path d="M85.933 25.5372V11.8449H89.1064V15.2935C89.1493 15.0885 89.1984 14.8917 89.2533 14.703C89.3004 14.5441 89.3507 14.3908 89.406 14.2435C89.756 13.3106 90.2806 12.6112 90.9802 12.1446C91.6797 11.6616 92.5374 11.4202 93.5539 11.4202H93.7285C94.7615 11.4202 95.6192 11.6616 96.3022 12.1446C97.0018 12.6112 97.5268 13.3106 97.8764 14.2435L97.904 14.3139L97.9275 14.3783C97.9432 14.3328 97.9597 14.288 97.9762 14.2435C98.3427 13.3106 98.876 12.6112 99.5755 12.1446C100.275 11.6616 101.133 11.4202 102.149 11.4202H102.324C103.356 11.4202 104.223 11.6616 104.922 12.1446C105.639 12.6112 106.18 13.3106 106.546 14.2435C106.913 15.1764 107.097 16.3424 107.097 17.7416V25.5372H103.099V17.5167C103.099 16.7671 102.899 16.1592 102.499 15.6928C102.116 15.2263 101.566 14.9931 100.85 14.9931C100.134 14.9931 99.5673 15.2348 99.1508 15.7178C98.7344 16.1841 98.526 16.8088 98.526 17.5918V25.5372H94.5032V17.5167C94.5032 16.7671 94.3034 16.1592 93.9035 15.6928C93.5205 15.2263 92.979 14.9931 92.2798 14.9931C91.5464 14.9931 90.9719 15.2348 90.5555 15.7178C90.139 16.1841 89.9306 16.8088 89.9306 17.5918V25.5372H85.933Z" fill="#2D2D2D" fill-opacity="0.8"/>
<path fill-rule="evenodd" clip-rule="evenodd" d="M117.773 22.8994V25.5376H120.946V17.1423C120.946 15.8763 120.697 14.8436 120.197 14.0439C119.697 13.2277 118.965 12.6198 117.998 12.22C117.049 11.8203 115.874 11.6204 114.475 11.6204C114.172 11.6204 113.855 11.6236 113.525 11.6302C113.33 11.6342 113.13 11.6393 112.926 11.6453C112.376 11.662 111.843 11.6869 111.327 11.7203L110.933 11.7469C110.73 11.761 110.54 11.7748 110.361 11.7889C110.226 11.7994 110.098 11.8098 109.978 11.8203V15.1935C110.494 15.1601 111.069 15.1267 111.702 15.0935C111.879 15.0843 112.054 15.0756 112.228 15.0675C112.48 15.0559 112.728 15.0458 112.974 15.037C113.168 15.0299 113.36 15.0237 113.551 15.0185C114.15 15.0018 114.633 14.9935 115 14.9935C115.733 14.9935 116.266 15.1683 116.599 15.5182C116.932 15.8681 117.099 16.3927 117.099 17.0924V17.1423H114.625C113.409 17.1423 112.335 17.3006 111.402 17.6171C110.469 17.9169 109.744 18.3917 109.228 19.0412C108.712 19.6743 108.454 20.4906 108.454 21.49C108.454 22.4062 108.662 23.1974 109.078 23.8636C109.495 24.5132 110.069 25.013 110.802 25.3626C111.552 25.7126 112.418 25.8876 113.401 25.8876C114.35 25.8876 115.15 25.7126 115.8 25.3626C116.466 25.013 116.982 24.5132 117.349 23.8636C117.413 23.7542 117.473 23.6407 117.529 23.5227C117.609 23.3559 117.679 23.1801 117.742 22.9964L117.773 22.8994ZM117.099 20.4656V19.3661H114.6C113.9 19.3661 113.359 19.541 112.976 19.8908C112.61 20.224 112.426 20.6821 112.426 21.2651C112.426 21.5395 112.472 21.7888 112.563 22.0137C112.655 22.2391 112.793 22.4393 112.976 22.6143C113.359 22.9477 113.9 23.1141 114.6 23.1141C114.733 23.1141 114.862 23.1075 114.986 23.0943C115.088 23.0839 115.186 23.0687 115.282 23.0493C115.465 23.0117 115.638 22.9585 115.8 22.8891C116.166 22.7228 116.466 22.4479 116.699 22.0645C116.932 21.6815 117.066 21.1484 117.099 20.4656Z" fill="#2D2D2D" fill-opacity="0.8"/>
<path d="M123.34 25.5372V11.8449H126.513V16.3644C126.665 15.0742 127.049 14.0339 127.663 13.2441C128.496 12.1947 129.695 11.67 131.261 11.67H131.785V15.1181H130.786C129.687 15.1181 128.837 15.4178 128.237 16.0175C127.638 16.6006 127.337 17.4501 127.337 18.5661V25.5372H123.34Z" fill="#2D2D2D" fill-opacity="0.8"/>
<path d="M136.856 19.1417H138.18L142.503 25.538H147L141.519 17.6825L146.026 11.8457H141.828L136.856 18.3562V7.29822H132.858V25.538H136.856V19.1417Z" fill="#2D2D2D" fill-opacity="0.8"/>
</svg>
