<svg width="138" height="30" viewBox="0 0 138 30" fill="none" xmlns="http://www.w3.org/2000/svg">
<path d="M112.255 2.03735V27.6268H116.001V2.03735H112.255Z" fill="#2D2D2D" fill-opacity="0.8"/>
<path fill-rule="evenodd" clip-rule="evenodd" d="M78.3897 28.0395C76.9118 28.0395 75.6772 27.6954 74.6858 27.0068C74.5772 26.9316 74.4719 26.8532 74.3692 26.7719V27.6265H71.0646V2.45007H74.8374V13.2356C75.7629 12.6405 76.8826 12.343 78.1968 12.343C79.6197 12.343 80.8588 12.6826 81.9145 13.3619C82.9702 14.0411 83.7871 14.9728 84.3652 16.157C84.9528 17.332 85.2464 18.6767 85.2464 20.1911C85.2464 21.6782 84.9574 23.0138 84.379 24.1982C83.8101 25.3822 83.0113 26.3185 81.9834 27.0068C80.9552 27.6954 79.7575 28.0395 78.3897 28.0395ZM74.6996 17.8231C74.4791 18.5022 74.3692 19.2915 74.3692 20.1911C74.3692 21.0907 74.4791 21.8803 74.6996 22.5594C74.9197 23.2389 75.278 23.7664 75.7734 24.143C76.2783 24.5193 76.9485 24.7073 77.7838 24.7073C78.5915 24.7073 79.2526 24.5056 79.7666 24.1017C80.2807 23.6978 80.6616 23.1562 80.9093 22.4768C81.1573 21.7885 81.281 21.0267 81.281 20.1911C81.281 19.365 81.1527 18.6124 80.8955 17.9333C80.6387 17.2447 80.2394 16.6985 79.6977 16.2946C79.1653 15.8816 78.4813 15.675 77.646 15.675C76.8658 15.675 76.2323 15.8632 75.7461 16.2396C75.2688 16.6159 74.9197 17.1437 74.6996 17.8231Z" fill="#2D2D2D" fill-opacity="0.8"/>
<path d="M65.1431 18.8421V27.6269H68.8881V17.851C68.8881 16.2262 68.4521 14.9136 67.58 13.913C66.7172 12.9033 65.4368 12.3984 63.7387 12.3984C62.7472 12.3984 61.8431 12.6187 61.0262 13.0593C60.2782 13.4588 59.668 14.0078 59.1956 14.7064C58.8432 14.0724 58.3564 13.5509 57.7353 13.1419C56.9919 12.6463 56.0372 12.3984 54.8716 12.3984C53.8526 12.3984 52.9301 12.6233 52.104 13.0731C51.4797 13.4168 50.9518 13.8543 50.5204 14.3857V12.7564H47.2161V27.6269H50.9885V18.622C50.9885 17.7684 51.2228 17.0753 51.6909 16.5429C52.1683 16.0013 52.7969 15.7305 53.577 15.7305C54.3942 15.7305 55.032 16.0059 55.491 16.5567C55.9591 17.0982 56.1934 17.8602 56.1934 18.8421V27.6269H59.9383V18.622C59.9383 18.0528 60.0439 17.5525 60.2552 17.1212C60.4754 16.6806 60.7782 16.3409 61.164 16.1023C61.5495 15.8544 62.0038 15.7305 62.5271 15.7305C63.344 15.7305 63.9818 16.0059 64.4407 16.5567C64.9089 17.0982 65.1431 17.8602 65.1431 18.8421Z" fill="#2D2D2D" fill-opacity="0.8"/>
<path d="M33.8001 27.4749C34.5344 27.8695 35.4845 28.067 36.6504 28.067C38.1097 28.067 39.317 27.7504 40.2717 27.1169C40.7247 26.8194 41.124 26.4778 41.4694 26.093V27.6264H44.7741V12.756H41.0013V20.3013C41.0013 21.2192 40.8957 21.9626 40.6847 22.5318C40.4826 23.0918 40.2211 23.5187 39.8996 23.8123C39.5784 24.097 39.2343 24.2896 38.8672 24.3907C38.5001 24.4917 38.1556 24.5422 37.8344 24.5422C37.0359 24.5422 36.4162 24.3631 35.9756 24.0052C35.5442 23.6473 35.2322 23.2021 35.0393 22.6696C34.8467 22.1372 34.7319 21.6093 34.6951 21.086C34.6584 20.5539 34.64 20.1179 34.64 19.778V12.756H30.84V21.0998C30.84 21.3478 30.858 21.7425 30.8948 22.2841C30.9315 22.8258 31.0371 23.4268 31.2117 24.0879C31.3859 24.7394 31.6752 25.3683 32.0791 25.9743C32.4921 26.5799 33.0659 27.0802 33.8001 27.4749Z" fill="#2D2D2D" fill-opacity="0.8"/>
<path d="M86.8992 12.7562V27.6267H90.6716V20.0263C90.6716 19.4571 90.7497 18.9476 90.9059 18.4978C91.0621 18.0388 91.2914 17.6442 91.5942 17.3138C91.8973 16.9741 92.269 16.7033 92.7096 16.5014C93.1502 16.2903 93.6413 16.1663 94.183 16.1296C94.7335 16.0837 95.2154 16.125 95.6285 16.2535V12.7562C95.1787 12.7012 94.7289 12.692 94.2791 12.7287C93.8293 12.7562 93.3933 12.8343 92.9711 12.9628C92.5489 13.0821 92.1588 13.2519 91.8009 13.4722C91.3327 13.7476 90.938 14.0964 90.6169 14.5187C90.4646 14.7186 90.3269 14.9287 90.2035 15.1492V12.7562H86.8992Z" fill="#2D2D2D" fill-opacity="0.8"/>
<path fill-rule="evenodd" clip-rule="evenodd" d="M103.516 28.0398C101.992 28.0398 100.647 27.714 99.4813 27.0622C98.3245 26.4014 97.4157 25.4973 96.755 24.3497C96.1031 23.1932 95.7773 21.8714 95.7773 20.3843C95.7773 18.7597 96.0985 17.346 96.7412 16.1435C97.3836 14.941 98.2694 14.0093 99.3986 13.3484C100.527 12.6783 101.827 12.3433 103.295 12.3433C104.856 12.3433 106.182 12.7104 107.274 13.4448C108.367 14.1791 109.174 15.2118 109.698 16.5428C110.221 17.8739 110.405 19.4388 110.249 21.2379H99.807C99.9238 22.1306 100.201 22.8557 100.638 23.4134C101.244 24.1663 102.129 24.5426 103.295 24.5426C104.03 24.5426 104.658 24.3818 105.181 24.0607C105.705 23.7395 106.104 23.2759 106.379 22.67L110.125 23.7441C109.564 25.1026 108.679 26.158 107.467 26.9106C106.265 27.6635 104.948 28.0398 103.516 28.0398ZM105.815 16.5979C106.135 17.0327 106.35 17.6525 106.459 18.4566H99.9055C100.051 17.7699 100.296 17.2053 100.638 16.7631C101.244 15.9828 102.185 15.5927 103.46 15.5927C104.553 15.5927 105.338 15.9278 105.815 16.5979Z" fill="#2D2D2D" fill-opacity="0.8"/>
<path d="M119.026 27.6268V2.03735H122.772V27.6268H119.026Z" fill="#2D2D2D" fill-opacity="0.8"/>
<path fill-rule="evenodd" clip-rule="evenodd" d="M126.942 27.4339C127.686 27.8377 128.59 28.0398 129.655 28.0398C130.94 28.0398 132 27.8194 132.835 27.3788C133.501 27.0241 134.13 26.4985 134.722 25.8014V27.6268H137.999V18.5392C137.999 17.8601 137.971 17.245 137.916 16.6943C137.861 16.1435 137.687 15.5927 137.393 15.042C136.87 14.0506 136.099 13.353 135.08 12.9491C134.061 12.5452 132.895 12.3433 131.583 12.3433C129.793 12.3433 128.379 12.7288 127.342 13.4999C126.305 14.2709 125.598 15.2715 125.221 16.5015L128.609 17.5754C128.847 16.8962 129.265 16.4235 129.861 16.1573C130.458 15.891 131.032 15.7579 131.583 15.7579C132.574 15.7579 133.281 15.9645 133.703 16.3776C134.035 16.7019 134.236 17.1705 134.307 17.7837C133.673 17.8798 133.072 17.971 132.505 18.0573C131.541 18.1951 130.678 18.3421 129.917 18.4979C129.154 18.6541 128.498 18.8332 127.948 19.0349C127.149 19.3286 126.511 19.696 126.034 20.1366C125.565 20.568 125.226 21.068 125.015 21.6372C124.804 22.2064 124.698 22.8353 124.698 23.5236C124.698 24.3497 124.886 25.1069 125.263 25.7955C125.648 26.4746 126.208 27.0208 126.942 27.4339ZM132.188 24.7352C131.72 24.974 131.142 25.0934 130.453 25.0934C130.022 25.0934 129.65 25.0291 129.338 24.9005C129.026 24.7719 128.783 24.5885 128.609 24.3497C128.443 24.102 128.361 23.808 128.361 23.4685C128.361 23.2208 128.411 22.9957 128.512 22.794C128.622 22.5919 128.787 22.4085 129.008 22.2431C129.237 22.0686 129.535 21.9082 129.903 21.7612C130.224 21.6418 130.596 21.5316 131.018 21.4308C131.44 21.3298 131.996 21.2196 132.684 21.1001C133.126 21.0178 133.656 20.9236 134.273 20.8183C134.264 21.0801 134.248 21.3761 134.226 21.7061C134.199 22.2386 134.088 22.7067 133.896 23.1106C133.795 23.3215 133.602 23.5833 133.317 23.8953C133.042 24.2073 132.666 24.4875 132.188 24.7352Z" fill="#2D2D2D" fill-opacity="0.8"/>
<path fill-rule="evenodd" clip-rule="evenodd" d="M10.1702 12.8637H0V17.2927C0 23.9059 5.36119 29.2672 11.9746 29.2672C18.588 29.2672 23.9493 23.9059 23.9493 17.2927V12.8637H13.4509V5.81019C13.4509 3.00177 11.1742 0.725098 8.36579 0.725098C5.55738 0.725098 3.2807 3.00177 3.2807 5.81019H6.56141C6.56141 4.81364 7.36928 4.0058 8.36579 4.0058C9.36234 4.0058 10.1702 4.81364 10.1702 5.81019V12.8637ZM10.1702 16.1444V22.3777H13.4509V16.1444H20.6686V17.2927C20.6686 22.0943 16.776 25.9865 11.9746 25.9865C7.17309 25.9865 3.2807 22.0943 3.2807 17.2927V16.1444H10.1702Z" fill="#2D2D2D" fill-opacity="0.8"/>
</svg>
