<svg width="146" height="29" viewBox="0 0 146 29" fill="none" xmlns="http://www.w3.org/2000/svg">
<path d="M3.59585 3.63023C5.58374 1.73228 8.28304 0.624492 11.0189 0.486697C11.9552 0.486697 12.8943 0.492314 13.8306 0.483887C13.7828 1.48769 13.8306 2.4943 13.8025 3.49805C13.6703 5.74182 12.8409 7.93498 11.4434 9.69513C9.62704 12.0627 6.84904 13.6513 3.89953 14.0618C2.61176 14.2699 1.30428 14.1377 0.00807511 14.1742C0.030549 13.0692 -0.0397301 11.9614 0.0474515 10.8592C0.300521 8.1262 1.5911 5.50847 3.59585 3.63023Z" fill="#2D2D2D" fill-opacity="0.2"/>
<path d="M14.6979 0.483887C15.7017 0.495124 16.7055 0.478268 17.7121 0.489505C20.2174 0.666629 22.6889 1.62825 24.5754 3.29565C26.6561 5.08108 28.0817 7.63416 28.4474 10.3615C28.6074 11.6268 28.5064 12.9061 28.5683 14.1771C27.6908 14.1742 26.8166 14.1714 25.9391 14.1771C23.7826 14.118 21.6626 13.4207 19.8574 12.2454C19.0251 11.6493 18.1704 11.0448 17.5462 10.2181C16.1769 8.68857 15.2462 6.76815 14.8947 4.74369C14.6304 3.33778 14.7373 1.90384 14.6979 0.483887Z" fill="#2D2D2D" fill-opacity="0.8"/>
<path d="M0.0103883 14.9813C0.901726 15.0319 1.79587 14.9391 2.68435 15.0376C6.48863 15.1191 10.1805 17.256 12.1515 20.5092C13.2818 22.3312 13.8892 24.4907 13.8104 26.6362C13.8076 27.339 13.8189 28.0389 13.7992 28.7393C12.3877 28.6969 10.9621 28.8121 9.56469 28.5393C6.46054 28.0165 3.60664 26.1691 1.88862 23.5318C0.586805 21.6142 -0.0627007 19.272 0.00476854 16.958C0.00476854 16.2972 0.00476981 15.6393 0.0103883 14.9813Z" fill="#2D2D2D" fill-opacity="0.8"/>
<path d="M23.8181 15.2788C25.348 14.9386 26.925 14.9948 28.48 14.9948L28.5477 15.0623C28.5139 16.5328 28.6291 18.0203 28.3339 19.4739C27.7125 22.7355 25.5532 25.6487 22.6485 27.2485C20.8406 28.2551 18.7655 28.7498 16.6989 28.7274C16.0381 28.7303 15.3745 28.716 14.7138 28.736C14.7138 27.5185 14.6632 26.2953 14.801 25.0835C15.1215 22.1507 16.7073 19.4205 18.9876 17.576C20.3991 16.4626 22.058 15.6556 23.8181 15.2788Z" fill="#2D2D2D" fill-opacity="0.6"/>
<path d="M40.0888 23.2929C40.0888 23.7878 39.9174 24.2067 39.575 24.5493C39.2512 24.8731 38.8418 25.035 38.3471 25.035C37.8709 25.035 37.471 24.8731 37.1477 24.5493C36.8239 24.2067 36.662 23.7878 36.662 23.2929V5.64399C36.662 5.14899 36.8239 4.73965 37.1477 4.41602C37.49 4.07334 37.909 3.90198 38.4042 3.90198C38.8989 3.90198 39.2989 4.07334 39.6036 4.41602C39.9269 4.73965 40.0888 5.14899 40.0888 5.64399V23.2929Z" fill="#2D2D2D" fill-opacity="0.8"/>
<path d="M53.8456 9.75635C54.3403 9.75635 54.7498 9.92766 55.0736 10.2704C55.3969 10.594 55.5588 11.0034 55.5588 11.4984V18.7521C55.5588 20.7702 54.9974 22.3694 53.8742 23.5498C52.7505 24.7302 51.1326 25.3206 49.019 25.3206C46.9059 25.3206 45.2875 24.7302 44.1643 23.5498C43.0601 22.3694 42.5078 20.7702 42.5078 18.7521V11.4984C42.5078 11.0034 42.6696 10.594 42.9934 10.2704C43.3172 9.92766 43.7262 9.75635 44.2214 9.75635C44.7166 9.75635 45.1256 9.92766 45.4494 10.2704C45.7731 10.594 45.935 11.0034 45.935 11.4984V18.7521C45.935 19.9134 46.1921 20.7797 46.7059 21.3509C47.2201 21.903 47.991 22.179 49.019 22.179C50.0665 22.179 50.8469 21.903 51.3611 21.3509C51.8749 20.7797 52.132 19.9134 52.132 18.7521V11.4984C52.132 11.0034 52.2939 10.594 52.6177 10.2704C52.941 9.92766 53.3504 9.75635 53.8456 9.75635Z" fill="#2D2D2D" fill-opacity="0.8"/>
<path d="M65.8647 9.47083C67.3879 9.47083 68.5111 9.84207 69.2349 10.5846C69.9581 11.3081 70.4343 12.2504 70.6623 13.4118L70.1771 13.1548L70.4057 12.6979C70.6338 12.26 70.9861 11.7935 71.4623 11.2985C71.9379 10.7845 72.5093 10.3561 73.1754 10.0134C73.8611 9.65167 74.6224 9.47083 75.4604 9.47083C76.8312 9.47083 77.8687 9.76594 78.573 10.3561C79.2967 10.9463 79.7914 11.7364 80.058 12.7264C80.3247 13.6974 80.458 14.7826 80.458 15.982V23.2929C80.458 23.7879 80.2961 24.2067 79.9723 24.5493C79.6486 24.8731 79.2396 25.035 78.7444 25.035C78.2497 25.035 77.8402 24.8731 77.5164 24.5493C77.1926 24.2067 77.0307 23.7879 77.0307 23.2929V15.982C77.0307 15.3537 76.955 14.7921 76.8027 14.2971C76.6503 13.7831 76.3741 13.3738 75.9742 13.0691C75.5747 12.7645 75.0033 12.6122 74.261 12.6122C73.5373 12.6122 72.9188 12.7645 72.4045 13.0691C71.8903 13.3738 71.5003 13.7831 71.2337 14.2971C70.9861 14.7921 70.8623 15.3537 70.8623 15.982V23.2929C70.8623 23.7879 70.7004 24.2067 70.3771 24.5493C70.0534 24.8731 69.6439 25.035 69.1492 25.035C68.654 25.035 68.2445 24.8731 67.9212 24.5493C67.5974 24.2067 67.4355 23.7879 67.4355 23.2929V15.982C67.4355 15.3537 67.3593 14.7921 67.207 14.2971C67.0546 13.7831 66.7784 13.3738 66.379 13.0691C65.979 12.7645 65.4076 12.6122 64.6653 12.6122C63.9421 12.6122 63.3231 12.7645 62.8089 13.0691C62.2951 13.3738 61.9047 13.7831 61.638 14.2971C61.3909 14.7921 61.2671 15.3537 61.2671 15.982V23.2929C61.2671 23.7879 61.1052 24.2067 60.7814 24.5493C60.4577 24.8731 60.0487 25.035 59.5535 25.035C59.0583 25.035 58.6493 24.8731 58.3255 24.5493C58.0017 24.2067 57.8398 23.7879 57.8398 23.2929V11.4984C57.8398 11.0034 58.0017 10.5941 58.3255 10.2705C58.6493 9.92773 59.0583 9.75642 59.5535 9.75642C60.0487 9.75642 60.4577 9.92773 60.7814 10.2705C61.1052 10.5941 61.2671 11.0034 61.2671 11.4984V12.7264L60.8386 12.6407C61.01 12.3171 61.2481 11.9744 61.5523 11.6127C61.857 11.2319 62.2284 10.8797 62.6665 10.556C63.1041 10.2324 63.5897 9.97534 64.1225 9.78494C64.6558 9.57553 65.2367 9.47083 65.8647 9.47083Z" fill="#2D2D2D" fill-opacity="0.8"/>
<path d="M85.9664 23.2929C85.9664 23.7879 85.8045 24.2067 85.4807 24.5493C85.1574 24.8731 84.7479 25.035 84.2527 25.035C83.758 25.035 83.3485 24.8731 83.0247 24.5493C82.7014 24.2067 82.5396 23.7879 82.5396 23.2929V11.4984C82.5396 11.0034 82.7014 10.5941 83.0247 10.2705C83.3485 9.92772 83.758 9.75641 84.2527 9.75641C84.7479 9.75641 85.1574 9.92772 85.4807 10.2705C85.8045 10.5941 85.9664 11.0034 85.9664 11.4984V23.2929ZM84.2242 7.90012C83.5771 7.90012 83.12 7.79542 82.8533 7.58596C82.5872 7.37656 82.4539 7.00531 82.4539 6.47222V5.92961C82.4539 5.37752 82.5967 5.00623 82.8819 4.81587C83.1866 4.60646 83.6437 4.50171 84.2527 4.50171C84.9193 4.50171 85.3859 4.60646 85.6521 4.81587C85.9187 5.02527 86.0521 5.39652 86.0521 5.92961V6.47222C86.0521 7.02436 85.9092 7.40513 85.6235 7.61453C85.3383 7.80494 84.8717 7.90012 84.2242 7.90012Z" fill="#2D2D2D" fill-opacity="0.8"/>
<path d="M96.2274 9.47083C97.6363 9.47083 98.7023 9.76594 99.4256 10.3561C100.168 10.9463 100.673 11.7364 100.939 12.7264C101.225 13.6974 101.368 14.7826 101.368 15.982V23.2929C101.368 23.7879 101.206 24.2067 100.882 24.5493C100.558 24.8731 100.149 25.035 99.6542 25.035C99.1594 25.035 98.75 24.8731 98.4262 24.5493C98.1024 24.2067 97.9405 23.7879 97.9405 23.2929V15.982C97.9405 15.3537 97.8553 14.7921 97.6839 14.2971C97.5315 13.7831 97.2458 13.3738 96.8268 13.0691C96.4083 12.7645 95.8084 12.6122 95.028 12.6122C94.2661 12.6122 93.6191 12.7645 93.0858 13.0691C92.572 13.3738 92.1721 13.7831 91.8864 14.2971C91.6197 14.7921 91.4864 15.3537 91.4864 15.982V23.2929C91.4864 23.7879 91.325 24.2067 91.0012 24.5493C90.6775 24.8731 90.268 25.035 89.7733 25.035C89.2781 25.035 88.8686 24.8731 88.5453 24.5493C88.2215 24.2067 88.0596 23.7879 88.0596 23.2929V11.4984C88.0596 11.0034 88.2215 10.5941 88.5453 10.2705C88.8686 9.92773 89.2781 9.75642 89.7733 9.75642C90.268 9.75642 90.6775 9.92773 91.0012 10.2705C91.325 10.5941 91.4864 11.0034 91.4864 11.4984V12.7264L91.0584 12.6407C91.2298 12.3171 91.4769 11.9744 91.8007 11.6127C92.1245 11.2319 92.5054 10.8797 92.9429 10.556C93.381 10.2324 93.8762 9.97534 94.428 9.78494C94.9804 9.57553 95.5798 9.47083 96.2274 9.47083Z" fill="#2D2D2D" fill-opacity="0.8"/>
<path d="M118.324 17.4099C118.324 18.9711 117.972 20.3514 117.267 21.5508C116.582 22.7312 115.649 23.6546 114.469 24.3208C113.307 24.9874 112.003 25.3207 110.556 25.3207C109.109 25.3207 107.795 24.9874 106.615 24.3208C105.454 23.6546 104.521 22.7312 103.816 21.5508C103.131 20.3514 102.788 18.9711 102.788 17.4099C102.788 15.8487 103.131 14.478 103.816 13.2976C104.521 12.0981 105.454 11.1653 106.615 10.4989C107.795 9.81351 109.109 9.47083 110.556 9.47083C112.003 9.47083 113.307 9.81351 114.469 10.4989C115.649 11.1653 116.582 12.0981 117.267 13.2976C117.972 14.478 118.324 15.8487 118.324 17.4099ZM114.897 17.4099C114.897 16.439 114.697 15.6012 114.297 14.8968C113.916 14.1733 113.393 13.6117 112.726 13.2119C112.079 12.8121 111.356 12.6122 110.556 12.6122C109.757 12.6122 109.023 12.8121 108.357 13.2119C107.71 13.6117 107.186 14.1733 106.786 14.8968C106.406 15.6012 106.215 16.439 106.215 17.4099C106.215 18.3619 106.406 19.1996 106.786 19.923C107.186 20.6274 107.71 21.1796 108.357 21.5794C109.023 21.9792 109.757 22.1791 110.556 22.1791C111.356 22.1791 112.079 21.9792 112.726 21.5794C113.393 21.1796 113.916 20.6274 114.297 19.923C114.697 19.1996 114.897 18.3619 114.897 17.4099Z" fill="#2D2D2D" fill-opacity="0.8"/>
<path d="M131.097 9.75635C131.592 9.75635 132.002 9.92766 132.326 10.2704C132.649 10.594 132.811 11.0034 132.811 11.4984V18.7521C132.811 20.7702 132.25 22.3694 131.126 23.5498C130.003 24.7302 128.385 25.3206 126.271 25.3206C124.158 25.3206 122.54 24.7302 121.416 23.5498C120.312 22.3694 119.76 20.7702 119.76 18.7521V11.4984C119.76 11.0034 119.922 10.594 120.245 10.2704C120.569 9.92766 120.978 9.75635 121.473 9.75635C121.969 9.75635 122.378 9.92766 122.701 10.2704C123.025 10.594 123.187 11.0034 123.187 11.4984V18.7521C123.187 19.9134 123.444 20.7797 123.958 21.3509C124.472 21.903 125.243 22.179 126.271 22.179C127.318 22.179 128.099 21.903 128.613 21.3509C129.127 20.7797 129.384 19.9134 129.384 18.7521V11.4984C129.384 11.0034 129.546 10.594 129.869 10.2704C130.193 9.92766 130.603 9.75635 131.097 9.75635Z" fill="#2D2D2D" fill-opacity="0.8"/>
<path d="M134.206 22.6646C134.016 22.3981 133.93 22.0553 133.949 21.6365C133.968 21.2177 134.216 20.8559 134.692 20.5513C134.996 20.3609 135.32 20.2848 135.663 20.3229C136.005 20.3419 136.338 20.5132 136.662 20.8369C137.215 21.389 137.795 21.8174 138.404 22.122C139.013 22.4266 139.775 22.5789 140.689 22.5789C140.975 22.5599 141.288 22.5218 141.631 22.4647C141.974 22.3886 142.269 22.2362 142.516 22.0078C142.783 21.7603 142.916 21.389 142.916 20.894C142.916 20.4752 142.773 20.142 142.488 19.8945C142.203 19.647 141.822 19.4376 141.346 19.2662C140.889 19.0948 140.375 18.933 139.804 18.7807C139.213 18.6094 138.604 18.419 137.976 18.2096C137.366 18.0001 136.805 17.7336 136.291 17.4099C135.777 17.0672 135.358 16.6198 135.034 16.0677C134.711 15.5156 134.549 14.8207 134.549 13.983C134.549 13.031 134.815 12.2219 135.349 11.5556C135.882 10.8892 136.567 10.3752 137.404 10.0134C138.262 9.65167 139.156 9.47083 140.089 9.47083C140.679 9.47083 141.298 9.54696 141.945 9.69928C142.593 9.83255 143.212 10.061 143.801 10.3847C144.392 10.6893 144.887 11.0986 145.287 11.6127C145.496 11.8982 145.62 12.2409 145.658 12.6407C145.696 13.0406 145.515 13.4023 145.115 13.726C144.83 13.9544 144.497 14.0591 144.116 14.0401C143.735 14.002 143.421 13.8688 143.173 13.6403C142.85 13.2214 142.412 12.8882 141.86 12.6407C141.326 12.3932 140.708 12.2695 140.003 12.2695C139.718 12.2695 139.404 12.3076 139.061 12.3837C138.737 12.4409 138.452 12.5837 138.204 12.8121C137.957 13.0215 137.833 13.3642 137.833 13.8402C137.833 14.2781 137.976 14.6303 138.262 14.8968C138.547 15.1443 138.928 15.3537 139.404 15.5251C139.899 15.6774 140.422 15.8297 140.975 15.982C141.545 16.1343 142.126 16.3152 142.716 16.5246C143.307 16.7341 143.849 17.0101 144.344 17.3528C144.839 17.6955 145.239 18.1429 145.544 18.695C145.848 19.2281 146.001 19.9135 146.001 20.7512C146.001 21.7222 145.715 22.5504 145.144 23.2358C144.573 23.9212 143.859 24.4446 143.002 24.8064C142.145 25.1493 141.269 25.3207 140.375 25.3207C139.251 25.3207 138.128 25.1302 137.005 24.7493C135.882 24.3493 134.949 23.6546 134.206 22.6646Z" fill="#2D2D2D" fill-opacity="0.8"/>
</svg>
