<svg width="109" height="20" viewBox="0 0 109 20" fill="none" xmlns="http://www.w3.org/2000/svg">
<g clip-path="url(#clip0_75_1497)">
<path fill-rule="evenodd" clip-rule="evenodd" d="M29.0232 0.630859L19.8156 18.6309H11.167L15.0204 11.1709H14.8475C11.6685 15.2977 6.92529 18.0144 0.166992 18.6309V11.2742C0.166992 11.2742 4.49044 11.0188 7.03207 8.34661H0.166992V0.631001H7.8826V6.97698L8.05577 6.97627L11.2087 0.631001H17.0438V6.93674L17.2169 6.93646L20.4881 0.630859H29.0232Z" fill="black"/>
<path d="M79.2334 16.6441H81.7183V2.38086H79.2334V16.6441Z" fill="black"/>
<path fill-rule="evenodd" clip-rule="evenodd" d="M65.5348 16.4984C66.0748 16.7229 66.624 16.8352 67.1823 16.8352C68.1046 16.8352 68.9299 16.6107 69.6581 16.1616C70.3862 15.7126 70.9506 15.0937 71.3511 14.3048C71.7516 13.5099 71.9518 12.6087 71.9518 11.6014C71.9518 10.5941 71.7455 9.69296 71.3329 8.89803C70.9202 8.10311 70.3468 7.48719 69.6125 7.05028C68.8783 6.60731 68.0439 6.38886 67.1094 6.39492C66.5148 6.39492 65.9444 6.51022 65.3982 6.74081C64.8521 6.9714 64.397 7.29908 64.0329 7.72385C64.0048 7.75619 63.9775 7.78885 63.951 7.82184V2.38995H61.457V16.6441H63.9328L63.9278 15.3125C63.9918 15.391 64.0603 15.4677 64.133 15.5427C64.5274 15.9493 64.9947 16.2678 65.5348 16.4984ZM68.0834 14.1956C67.6768 14.4444 67.2126 14.5688 66.6907 14.5688C66.1749 14.5688 65.7016 14.4413 65.2708 14.1865C64.8399 13.9255 64.4971 13.5706 64.2422 13.1215C63.9934 12.6725 63.869 12.1627 63.869 11.5923C63.863 11.0219 63.9843 10.5122 64.2331 10.0631C64.488 9.60801 64.8308 9.25605 65.2617 9.00726C65.6925 8.7524 66.1689 8.628 66.6907 8.63407C67.2126 8.628 67.6768 8.74936 68.0834 8.99816C68.496 9.24088 68.8115 9.5898 69.03 10.0449C69.2545 10.494 69.3668 11.0098 69.3668 11.5923C69.3668 12.1749 69.2545 12.6907 69.03 13.1397C68.8115 13.5888 68.496 13.9407 68.0834 14.1956Z" fill="black"/>
<path d="M32.623 3.24557H35.4629L38.0033 12.5232L40.7058 3.24557H43.0724L46.0033 12.337L48.4427 3.24557H51.0459L47.2048 16.6441H44.7563L41.7759 7.76245L39.0401 16.6441H36.5643L32.623 3.24557Z" fill="black"/>
<path fill-rule="evenodd" clip-rule="evenodd" d="M55.24 16.8807C54.2508 16.8868 53.3588 16.6683 52.5639 16.2254C51.775 15.7763 51.1531 15.1543 50.6979 14.3594C50.2489 13.5645 50.0244 12.6573 50.0244 11.6378C50.0244 10.6487 50.255 9.75366 50.7162 8.95267C51.1773 8.15167 51.8023 7.52665 52.5912 7.07761C53.3801 6.62857 54.2599 6.40405 55.2308 6.40405C56.3231 6.40405 57.2788 6.64677 58.098 7.13222C58.9233 7.61767 59.5392 8.30641 59.9458 9.19842C60.3584 10.0844 60.5071 11.1008 60.3918 12.2477H52.5951C52.6169 12.7046 52.7309 13.1203 52.9371 13.4947C53.1677 13.9073 53.4893 14.2289 53.9019 14.4595C54.3146 14.6901 54.7757 14.8054 55.2855 14.8054C55.6738 14.7993 56.0349 14.7326 56.3686 14.6052C56.7024 14.4717 56.9845 14.2927 57.2151 14.0681C57.4518 13.8436 57.6187 13.5888 57.7158 13.3036H60.319C60.1612 14.0014 59.8457 14.6234 59.3724 15.1695C58.899 15.7096 58.3044 16.1313 57.5883 16.4347C56.8723 16.7381 56.0895 16.8868 55.24 16.8807ZM52.9462 9.74456C52.8008 9.99814 52.7 10.2712 52.6439 10.5638H57.8122C57.7747 10.1942 57.6606 9.85739 57.47 9.55341C57.2515 9.19539 56.9542 8.91929 56.578 8.72511C56.2018 8.52486 55.777 8.42474 55.3037 8.42474C54.8 8.42474 54.3419 8.54003 53.9292 8.77062C53.5166 9.00121 53.1889 9.32586 52.9462 9.74456Z" fill="black"/>
<path d="M73.7807 6.61339C73.7807 5.80026 73.9657 5.07815 74.3359 4.44706C74.706 3.80991 75.2249 3.31535 75.8924 2.9634C76.5659 2.60538 77.3518 2.4203 78.2498 2.40817V4.62C77.8311 4.62607 77.4731 4.71406 77.1758 4.88397C76.8845 5.04781 76.66 5.2875 76.5022 5.60304C76.357 5.89354 76.2786 6.23032 76.2671 6.61339H78.1952V8.716H76.2656V16.6441H73.7807V8.716H72.1787V6.61339H73.7807Z" fill="black"/>
<path fill-rule="evenodd" clip-rule="evenodd" d="M88.0348 16.8625C87.0214 16.8625 86.1142 16.641 85.3132 16.1981C84.5183 15.749 83.8933 15.1301 83.4382 14.3412C82.9891 13.5463 82.7646 12.6452 82.7646 11.6378C82.7646 10.6245 82.9891 9.72028 83.4382 8.92535C83.8933 8.12435 84.5183 7.50237 85.3132 7.0594C86.1142 6.61642 87.0214 6.39493 88.0348 6.39493C89.0542 6.39493 89.9645 6.61642 90.7654 7.0594C91.5725 7.50237 92.2007 8.12132 92.6497 8.91625C93.0987 9.71117 93.3262 10.6184 93.3323 11.6378C93.3262 12.6452 93.0987 13.5463 92.6497 14.3412C92.2067 15.1301 91.5816 15.749 90.7745 16.1981C89.9675 16.641 89.0542 16.8625 88.0348 16.8625ZM88.0348 14.5779C88.5688 14.5779 89.0422 14.4565 89.4548 14.2138C89.8675 13.965 90.1859 13.6191 90.4105 13.1761C90.635 12.7271 90.7472 12.2143 90.7472 11.6378C90.7472 11.0553 90.635 10.5395 90.4105 10.0904C90.1859 9.64139 89.8675 9.29551 89.4548 9.05278C89.0422 8.80399 88.5688 8.67959 88.0348 8.67959C87.5069 8.67959 87.0366 8.80399 86.6239 9.05278C86.2174 9.29551 85.9018 9.64139 85.6773 10.0904C85.4528 10.5395 85.3436 11.0553 85.3496 11.6378C85.3496 12.2143 85.4619 12.7271 85.6864 13.1761C85.917 13.6191 86.2325 13.965 86.633 14.2138C87.0396 14.4565 87.5069 14.5779 88.0348 14.5779Z" fill="black"/>
<path d="M96.018 6.6134H93.251L96.2456 16.6441H98.6668L100.636 10.2375L102.762 16.6441H105.147L108.151 6.6134H105.648L103.944 12.8569L102.061 6.6134H99.6407L97.7669 12.9944L96.018 6.6134Z" fill="black"/>
</g>
<defs>
<clipPath id="clip0_75_1497">
<rect width="108" height="19" fill="white" transform="translate(0.166992 0.130859)"/>
</clipPath>
</defs>
</svg>
